<svg width="471" height="425" viewBox="0 0 471 425" fill="none" xmlns="http://www.w3.org/2000/svg" xmlns:xlink="http://www.w3.org/1999/xlink"> <g class="delay-2 fadetop"> <rect x="99" y="23" width="321" height="402" rx="12" fill="url(#pattern0_1270_10236)"></rect> </g> <g class="delay-5 fadeleft"> <g filter="url(#filter0_d_1270_10236)"> <path d="M266 336C266 328.268 272.268 322 280 322H448C455.732 322 462 328.268 462 336V381C462 388.732 455.732 395 448 395H280C272.268 395 266 388.732 266 381V336Z" fill="white" fill-opacity="0.97" shape-rendering="crispEdges"></path> <path d="M280 322.5H448C455.456 322.5 461.5 328.544 461.5 336V381C461.5 388.456 455.456 394.5 448 394.5H280C272.544 394.5 266.5 388.456 266.5 381V336L266.505 335.651C266.69 328.357 272.661 322.5 280 322.5Z" stroke="white" stroke-opacity="0.2" shape-rendering="crispEdges"></path> <path d="M339.864 364L337.4 359.648H336.344V364H334.104V352.832H338.296C339.16 352.832 339.896 352.987 340.504 353.296C341.112 353.595 341.565 354.005 341.864 354.528C342.173 355.04 342.328 355.616 342.328 356.256C342.328 356.992 342.115 357.659 341.688 358.256C341.261 358.843 340.627 359.248 339.784 359.472L342.456 364H339.864ZM336.344 357.968H338.216C338.824 357.968 339.277 357.824 339.576 357.536C339.875 357.237 340.024 356.827 340.024 356.304C340.024 355.792 339.875 355.397 339.576 355.12C339.277 354.832 338.824 354.688 338.216 354.688H336.344V357.968ZM352.594 359.376C352.594 359.696 352.573 359.984 352.53 360.24H346.05C346.103 360.88 346.327 361.381 346.722 361.744C347.117 362.107 347.602 362.288 348.178 362.288C349.01 362.288 349.602 361.931 349.954 361.216H352.37C352.114 362.069 351.623 362.773 350.898 363.328C350.173 363.872 349.282 364.144 348.226 364.144C347.373 364.144 346.605 363.957 345.922 363.584C345.25 363.2 344.722 362.661 344.338 361.968C343.965 361.275 343.778 360.475 343.778 359.568C343.778 358.651 343.965 357.845 344.338 357.152C344.711 356.459 345.234 355.925 345.906 355.552C346.578 355.179 347.351 354.992 348.226 354.992C349.069 354.992 349.821 355.173 350.482 355.536C351.154 355.899 351.671 356.416 352.034 357.088C352.407 357.749 352.594 358.512 352.594 359.376ZM350.274 358.736C350.263 358.16 350.055 357.701 349.65 357.36C349.245 357.008 348.749 356.832 348.162 356.832C347.607 356.832 347.138 357.003 346.754 357.344C346.381 357.675 346.151 358.139 346.066 358.736H350.274ZM358.293 356.976H356.741V364H354.469V356.976H353.461V355.136H354.469V354.688C354.469 353.6 354.778 352.8 355.397 352.288C356.016 351.776 356.949 351.536 358.197 351.568V353.456C357.653 353.445 357.274 353.536 357.061 353.728C356.848 353.92 356.741 354.267 356.741 354.768V355.136H358.293V356.976ZM367.985 359.376C367.985 359.696 367.963 359.984 367.921 360.24H361.441C361.494 360.88 361.718 361.381 362.113 361.744C362.507 362.107 362.993 362.288 363.569 362.288C364.401 362.288 364.993 361.931 365.345 361.216H367.761C367.505 362.069 367.014 362.773 366.289 363.328C365.563 363.872 364.673 364.144 363.617 364.144C362.763 364.144 361.995 363.957 361.313 363.584C360.641 363.2 360.113 362.661 359.729 361.968C359.355 361.275 359.169 360.475 359.169 359.568C359.169 358.651 359.355 357.845 359.729 357.152C360.102 356.459 360.625 355.925 361.297 355.552C361.969 355.179 362.742 354.992 363.617 354.992C364.459 354.992 365.211 355.173 365.873 355.536C366.545 355.899 367.062 356.416 367.425 357.088C367.798 357.749 367.985 358.512 367.985 359.376ZM365.665 358.736C365.654 358.16 365.446 357.701 365.041 357.36C364.635 357.008 364.139 356.832 363.553 356.832C362.998 356.832 362.529 357.003 362.145 357.344C361.771 357.675 361.542 358.139 361.457 358.736H365.665ZM371.86 356.512C372.148 356.043 372.521 355.675 372.98 355.408C373.449 355.141 373.982 355.008 374.58 355.008V357.36H373.988C373.284 357.36 372.75 357.525 372.388 357.856C372.036 358.187 371.86 358.763 371.86 359.584V364H369.62V355.136H371.86V356.512ZM388.493 364L387.277 362.8C386.242 363.728 384.978 364.192 383.485 364.192C382.664 364.192 381.938 364.053 381.309 363.776C380.69 363.488 380.21 363.088 379.869 362.576C379.528 362.053 379.357 361.451 379.357 360.768C379.357 360.032 379.565 359.371 379.981 358.784C380.397 358.197 381.01 357.723 381.821 357.36C381.533 357.008 381.325 356.672 381.197 356.352C381.069 356.021 381.005 355.669 381.005 355.296C381.005 354.784 381.138 354.325 381.405 353.92C381.672 353.504 382.05 353.179 382.541 352.944C383.042 352.709 383.624 352.592 384.285 352.592C384.957 352.592 385.533 352.72 386.013 352.976C386.493 353.232 386.85 353.573 387.085 354C387.32 354.427 387.421 354.901 387.389 355.424H385.213C385.224 355.072 385.138 354.805 384.957 354.624C384.776 354.432 384.53 354.336 384.221 354.336C383.922 354.336 383.672 354.427 383.469 354.608C383.277 354.779 383.181 355.003 383.181 355.28C383.181 355.547 383.261 355.813 383.421 356.08C383.581 356.336 383.842 356.656 384.205 357.04L387.021 359.824C387.042 359.803 387.058 359.781 387.069 359.76C387.08 359.739 387.09 359.717 387.101 359.696L388.013 358.176H390.349L389.229 360.144C389.016 360.56 388.786 360.955 388.541 361.328L391.245 364H388.493ZM383.549 362.336C384.424 362.336 385.197 362.027 385.869 361.408L383.117 358.688C382.082 359.147 381.565 359.797 381.565 360.64C381.565 361.12 381.746 361.525 382.109 361.856C382.472 362.176 382.952 362.336 383.549 362.336ZM398.407 354.64V357.44H402.167V359.216H398.407V362.176H402.647V364H396.167V352.816H402.647V354.64H398.407ZM404.106 359.536C404.106 358.64 404.282 357.845 404.634 357.152C404.997 356.459 405.482 355.925 406.09 355.552C406.709 355.179 407.397 354.992 408.154 354.992C408.815 354.992 409.391 355.125 409.882 355.392C410.383 355.659 410.783 355.995 411.082 356.4V355.136H413.338V364H411.082V362.704C410.794 363.12 410.394 363.467 409.882 363.744C409.381 364.011 408.799 364.144 408.138 364.144C407.391 364.144 406.709 363.952 406.09 363.568C405.482 363.184 404.997 362.645 404.634 361.952C404.282 361.248 404.106 360.443 404.106 359.536ZM411.082 359.568C411.082 359.024 410.975 358.56 410.762 358.176C410.549 357.781 410.261 357.483 409.898 357.28C409.535 357.067 409.146 356.96 408.73 356.96C408.314 356.96 407.93 357.061 407.578 357.264C407.226 357.467 406.938 357.765 406.714 358.16C406.501 358.544 406.394 359.003 406.394 359.536C406.394 360.069 406.501 360.539 406.714 360.944C406.938 361.339 407.226 361.643 407.578 361.856C407.941 362.069 408.325 362.176 408.73 362.176C409.146 362.176 409.535 362.075 409.898 361.872C410.261 361.659 410.549 361.36 410.762 360.976C410.975 360.581 411.082 360.112 411.082 359.568ZM417.766 356.512C418.054 356.043 418.427 355.675 418.886 355.408C419.355 355.141 419.889 355.008 420.486 355.008V357.36H419.894C419.19 357.36 418.657 357.525 418.294 357.856C417.942 358.187 417.766 358.763 417.766 359.584V364H415.526V355.136H417.766V356.512ZM426.907 355.008C427.963 355.008 428.816 355.344 429.467 356.016C430.117 356.677 430.443 357.605 430.443 358.8V364H428.203V359.104C428.203 358.4 428.027 357.861 427.675 357.488C427.323 357.104 426.843 356.912 426.235 356.912C425.616 356.912 425.125 357.104 424.763 357.488C424.411 357.861 424.235 358.4 424.235 359.104V364H421.995V355.136H424.235V356.24C424.533 355.856 424.912 355.557 425.371 355.344C425.84 355.12 426.352 355.008 426.907 355.008Z" fill="#1B365D"></path> <g filter="url(#filter1_dd_1270_10236)" data-figma-bg-blur-radius="12"> <rect x="284" y="340" width="37" height="37" rx="6" fill="url(#paint0_linear_1270_10236)"></rect> <path d="M303 365.75C301.269 365.75 299.578 365.237 298.139 364.275C296.7 363.314 295.578 361.947 294.916 360.348C294.254 358.75 294.081 356.99 294.418 355.293C294.756 353.596 295.589 352.037 296.813 350.813C298.037 349.589 299.596 348.756 301.293 348.418C302.99 348.081 304.75 348.254 306.348 348.916C307.947 349.578 309.314 350.7 310.275 352.139C311.237 353.578 311.75 355.269 311.75 357C311.747 359.32 310.825 361.544 309.184 363.184C307.544 364.825 305.32 365.747 303 365.75ZM303 349.75C301.566 349.75 300.164 350.175 298.972 350.972C297.78 351.768 296.851 352.901 296.302 354.226C295.753 355.55 295.61 357.008 295.889 358.414C296.169 359.821 296.86 361.113 297.873 362.127C298.887 363.14 300.179 363.831 301.586 364.111C302.992 364.39 304.45 364.247 305.774 363.698C307.099 363.149 308.232 362.22 309.028 361.028C309.825 359.836 310.25 358.434 310.25 357C310.248 355.078 309.483 353.235 308.124 351.876C306.765 350.517 304.922 349.752 303 349.75Z" fill="white"></path> <path d="M298 369.363C297.77 369.363 297.542 369.318 297.329 369.23C297.116 369.142 296.923 369.013 296.761 368.85C296.598 368.687 296.469 368.494 296.382 368.281C296.294 368.068 296.249 367.84 296.25 367.61V362.29C296.25 362.091 296.329 361.9 296.47 361.76C296.61 361.619 296.801 361.54 297 361.54C297.199 361.54 297.39 361.619 297.53 361.76C297.671 361.9 297.75 362.091 297.75 362.29V367.61C297.749 367.65 297.757 367.69 297.775 367.726C297.792 367.762 297.818 367.793 297.85 367.817C297.882 367.841 297.919 367.856 297.959 367.862C297.998 367.868 298.039 367.864 298.076 367.85L302.246 366.459V365C302.246 364.801 302.325 364.61 302.466 364.47C302.606 364.329 302.797 364.25 302.996 364.25C303.195 364.25 303.386 364.329 303.526 364.47C303.667 364.61 303.746 364.801 303.746 365V367C303.746 367.157 303.696 367.311 303.604 367.438C303.512 367.566 303.382 367.661 303.233 367.711L298.553 369.271C298.375 369.332 298.188 369.363 298 369.363Z" fill="white"></path> <path d="M308 369.363C307.809 369.363 307.62 369.332 307.439 369.271L302.762 367.711C302.613 367.661 302.483 367.566 302.391 367.438C302.3 367.31 302.25 367.157 302.25 367V365C302.25 364.801 302.329 364.61 302.47 364.47C302.61 364.329 302.801 364.25 303 364.25C303.199 364.25 303.39 364.329 303.53 364.47C303.671 364.61 303.75 364.801 303.75 365V366.459L307.917 367.849C307.955 367.863 307.996 367.868 308.036 367.862C308.076 367.856 308.113 367.841 308.146 367.817C308.178 367.793 308.204 367.762 308.221 367.726C308.239 367.69 308.247 367.65 308.246 367.61V362.29C308.246 362.091 308.325 361.9 308.466 361.76C308.606 361.619 308.797 361.54 308.996 361.54C309.195 361.54 309.386 361.619 309.526 361.76C309.667 361.9 309.746 362.091 309.746 362.29V367.61C309.747 367.84 309.702 368.068 309.615 368.28C309.527 368.493 309.399 368.686 309.237 368.849C309.075 369.012 308.882 369.141 308.67 369.229C308.457 369.317 308.23 369.363 308 369.363Z" fill="white"></path> <path d="M304.971 361.8C304.6 361.799 304.24 361.68 303.942 361.46L303.292 360.988C303.205 360.924 303.1 360.89 302.992 360.89C302.884 360.89 302.779 360.924 302.692 360.988L302.043 361.46C301.744 361.678 301.383 361.795 301.013 361.795C300.643 361.795 300.282 361.678 299.983 361.46C299.684 361.242 299.461 360.935 299.347 360.583C299.234 360.231 299.234 359.852 299.35 359.5L299.598 358.737C299.631 358.634 299.632 358.524 299.598 358.422C299.565 358.319 299.5 358.23 299.413 358.167L298.764 357.7C298.463 357.483 298.238 357.177 298.122 356.824C298.007 356.472 298.006 356.092 298.12 355.739C298.235 355.386 298.458 355.079 298.759 354.861C299.059 354.644 299.421 354.527 299.792 354.529H300.592C300.699 354.529 300.805 354.495 300.892 354.432C300.979 354.369 301.044 354.279 301.077 354.177L301.325 353.413C301.439 353.061 301.661 352.755 301.96 352.537C302.259 352.32 302.62 352.203 302.989 352.203C303.359 352.203 303.719 352.32 304.018 352.537C304.317 352.755 304.54 353.061 304.654 353.413L304.902 354.176C304.935 354.279 305 354.368 305.087 354.432C305.174 354.495 305.28 354.529 305.388 354.529H306.188C306.559 354.527 306.921 354.643 307.222 354.86C307.523 355.077 307.747 355.384 307.862 355.737C307.977 356.09 307.977 356.47 307.862 356.823C307.747 357.176 307.523 357.483 307.222 357.7L306.572 358.172C306.484 358.235 306.419 358.325 306.386 358.427C306.353 358.53 306.353 358.64 306.387 358.743L306.635 359.505C306.752 359.855 306.754 360.234 306.639 360.586C306.525 360.938 306.301 361.243 306 361.458C305.702 361.678 305.341 361.798 304.971 361.8ZM299.792 356.029C299.739 356.029 299.688 356.046 299.645 356.077C299.603 356.108 299.571 356.152 299.555 356.202C299.539 356.252 299.539 356.306 299.555 356.356C299.572 356.406 299.603 356.45 299.646 356.481L300.294 356.954C300.638 357.202 300.895 357.554 301.027 357.958C301.158 358.362 301.157 358.797 301.025 359.201L300.777 359.964C300.76 360.014 300.76 360.068 300.776 360.119C300.793 360.169 300.824 360.213 300.867 360.244C300.91 360.275 300.962 360.292 301.015 360.292C301.067 360.292 301.119 360.275 301.162 360.244L301.811 359.772C302.154 359.521 302.567 359.386 302.992 359.386C303.417 359.386 303.831 359.521 304.174 359.772L304.824 360.244C304.865 360.278 304.917 360.296 304.97 360.296C305.024 360.296 305.075 360.278 305.117 360.244C305.162 360.215 305.195 360.171 305.212 360.12C305.228 360.069 305.227 360.014 305.208 359.964L304.96 359.2C304.828 358.796 304.827 358.361 304.959 357.957C305.09 357.553 305.346 357.201 305.691 356.952L306.34 356.48C306.382 356.449 306.414 356.405 306.43 356.355C306.447 356.305 306.447 356.251 306.43 356.2C306.414 356.15 306.382 356.107 306.34 356.076C306.297 356.045 306.246 356.028 306.193 356.028H305.393C304.968 356.029 304.553 355.895 304.209 355.646C303.865 355.396 303.609 355.044 303.478 354.64L303.23 353.877C303.137 353.59 302.848 353.592 302.755 353.877L302.507 354.64C302.377 355.044 302.123 355.396 301.78 355.645C301.437 355.895 301.024 356.029 300.6 356.029H299.792Z" fill="white"></path> </g> </g> </g> <g class="delay-4 faderight"> <g filter="url(#filter2_d_1270_10236)"> <path d="M9 23C9 15.268 15.268 9 23 9H259C266.732 9 273 15.268 273 23V68C273 75.732 266.732 82 259 82H23C15.268 82 9 75.732 9 68V23Z" fill="white" fill-opacity="0.97" shape-rendering="crispEdges"></path> <path d="M23 9.5H259C266.456 9.5 272.5 15.5442 272.5 23V68C272.5 75.4558 266.456 81.5 259 81.5H23C15.5442 81.5 9.5 75.4558 9.5 68V23L9.50488 22.6514C9.6898 15.3567 15.6607 9.5 23 9.5Z" stroke="white" stroke-opacity="0.2" shape-rendering="crispEdges"></path> <path d="M81.008 39.832C82.1813 39.832 83.2107 40.0613 84.096 40.52C84.992 40.9787 85.68 41.6347 86.16 42.488C86.6507 43.3307 86.896 44.312 86.896 45.432C86.896 46.552 86.6507 47.5333 86.16 48.376C85.68 49.208 84.992 49.8533 84.096 50.312C83.2107 50.7707 82.1813 51 81.008 51H77.104V39.832H81.008ZM80.928 49.096C82.1013 49.096 83.008 48.776 83.648 48.136C84.288 47.496 84.608 46.5947 84.608 45.432C84.608 44.2693 84.288 43.3627 83.648 42.712C83.008 42.0507 82.1013 41.72 80.928 41.72H79.344V49.096H80.928ZM96.8128 46.376C96.8128 46.696 96.7914 46.984 96.7488 47.24H90.2688C90.3221 47.88 90.5461 48.3813 90.9408 48.744C91.3354 49.1067 91.8208 49.288 92.3968 49.288C93.2288 49.288 93.8208 48.9307 94.1728 48.216H96.5888C96.3328 49.0693 95.8421 49.7733 95.1168 50.328C94.3914 50.872 93.5008 51.144 92.4448 51.144C91.5914 51.144 90.8234 50.9573 90.1408 50.584C89.4688 50.2 88.9408 49.6613 88.5568 48.968C88.1834 48.2747 87.9967 47.4747 87.9967 46.568C87.9967 45.6507 88.1834 44.8453 88.5568 44.152C88.9301 43.4587 89.4528 42.9253 90.1248 42.552C90.7968 42.1787 91.5701 41.992 92.4448 41.992C93.2874 41.992 94.0394 42.1733 94.7008 42.536C95.3728 42.8987 95.8901 43.416 96.2528 44.088C96.6261 44.7493 96.8128 45.512 96.8128 46.376ZM94.4928 45.736C94.4821 45.16 94.2741 44.7013 93.8688 44.36C93.4634 44.008 92.9674 43.832 92.3808 43.832C91.8261 43.832 91.3568 44.0027 90.9728 44.344C90.5994 44.6747 90.3701 45.1387 90.2848 45.736H94.4928ZM97.8717 46.536C97.8717 45.64 98.0477 44.8453 98.3997 44.152C98.7624 43.4587 99.2531 42.9253 99.8718 42.552C100.49 42.1787 101.178 41.992 101.936 41.992C102.512 41.992 103.061 42.12 103.584 42.376C104.106 42.6213 104.522 42.952 104.832 43.368V39.16H107.104V51H104.832V49.688C104.554 50.1253 104.165 50.4773 103.664 50.744C103.162 51.0107 102.581 51.144 101.92 51.144C101.173 51.144 100.49 50.952 99.8718 50.568C99.2531 50.184 98.7624 49.6453 98.3997 48.952C98.0477 48.248 97.8717 47.4427 97.8717 46.536ZM104.848 46.568C104.848 46.024 104.741 45.56 104.528 45.176C104.314 44.7813 104.026 44.4827 103.664 44.28C103.301 44.0667 102.912 43.96 102.496 43.96C102.08 43.96 101.696 44.0613 101.344 44.264C100.992 44.4667 100.704 44.7653 100.48 45.16C100.266 45.544 100.16 46.0027 100.16 46.536C100.16 47.0693 100.266 47.5387 100.48 47.944C100.704 48.3387 100.992 48.6427 101.344 48.856C101.706 49.0693 102.09 49.176 102.496 49.176C102.912 49.176 103.301 49.0747 103.664 48.872C104.026 48.6587 104.314 48.36 104.528 47.976C104.741 47.5813 104.848 47.112 104.848 46.568ZM110.428 41.08C110.033 41.08 109.702 40.9573 109.436 40.712C109.18 40.456 109.052 40.1413 109.052 39.768C109.052 39.3947 109.18 39.0853 109.436 38.84C109.702 38.584 110.033 38.456 110.428 38.456C110.822 38.456 111.148 38.584 111.404 38.84C111.67 39.0853 111.804 39.3947 111.804 39.768C111.804 40.1413 111.67 40.456 111.404 40.712C111.148 40.9573 110.822 41.08 110.428 41.08ZM111.532 42.136V51H109.292V42.136H111.532ZM113.169 46.568C113.169 45.6507 113.355 44.8507 113.729 44.168C114.102 43.4747 114.619 42.9413 115.281 42.568C115.942 42.184 116.699 41.992 117.553 41.992C118.651 41.992 119.558 42.2693 120.273 42.824C120.998 43.368 121.483 44.136 121.729 45.128H119.313C119.185 44.744 118.966 44.4453 118.657 44.232C118.358 44.008 117.985 43.896 117.537 43.896C116.897 43.896 116.39 44.1307 116.017 44.6C115.643 45.0587 115.457 45.7147 115.457 46.568C115.457 47.4107 115.643 48.0667 116.017 48.536C116.39 48.9947 116.897 49.224 117.537 49.224C118.443 49.224 119.035 48.8187 119.313 48.008H121.729C121.483 48.968 120.998 49.7307 120.273 50.296C119.547 50.8613 118.641 51.144 117.553 51.144C116.699 51.144 115.942 50.9573 115.281 50.584C114.619 50.2 114.102 49.6667 113.729 48.984C113.355 48.2907 113.169 47.4853 113.169 46.568ZM122.794 46.536C122.794 45.64 122.97 44.8453 123.322 44.152C123.684 43.4587 124.17 42.9253 124.778 42.552C125.396 42.1787 126.084 41.992 126.842 41.992C127.503 41.992 128.079 42.1253 128.57 42.392C129.071 42.6587 129.471 42.9947 129.77 43.4V42.136H132.026V51H129.77V49.704C129.482 50.12 129.082 50.4667 128.57 50.744C128.068 51.0107 127.487 51.144 126.826 51.144C126.079 51.144 125.396 50.952 124.778 50.568C124.17 50.184 123.684 49.6453 123.322 48.952C122.97 48.248 122.794 47.4427 122.794 46.536ZM129.77 46.568C129.77 46.024 129.663 45.56 129.45 45.176C129.236 44.7813 128.948 44.4827 128.586 44.28C128.223 44.0667 127.834 43.96 127.418 43.96C127.002 43.96 126.618 44.0613 126.266 44.264C125.914 44.4667 125.626 44.7653 125.402 45.16C125.188 45.544 125.082 46.0027 125.082 46.536C125.082 47.0693 125.188 47.5387 125.402 47.944C125.626 48.3387 125.914 48.6427 126.266 48.856C126.628 49.0693 127.012 49.176 127.418 49.176C127.834 49.176 128.223 49.0747 128.586 48.872C128.948 48.6587 129.236 48.36 129.45 47.976C129.663 47.5813 129.77 47.112 129.77 46.568ZM136.821 43.976V48.264C136.821 48.5627 136.891 48.7813 137.029 48.92C137.179 49.048 137.424 49.112 137.765 49.112H138.805V51H137.397C135.509 51 134.565 50.0827 134.565 48.248V43.976H133.509V42.136H134.565V39.944H136.821V42.136H138.805V43.976H136.821ZM148.657 46.376C148.657 46.696 148.635 46.984 148.593 47.24H142.113C142.166 47.88 142.39 48.3813 142.785 48.744C143.179 49.1067 143.665 49.288 144.241 49.288C145.073 49.288 145.665 48.9307 146.017 48.216H148.433C148.177 49.0693 147.686 49.7733 146.961 50.328C146.235 50.872 145.345 51.144 144.289 51.144C143.435 51.144 142.667 50.9573 141.985 50.584C141.313 50.2 140.785 49.6613 140.401 48.968C140.027 48.2747 139.84 47.4747 139.84 46.568C139.84 45.6507 140.027 44.8453 140.401 44.152C140.774 43.4587 141.297 42.9253 141.969 42.552C142.641 42.1787 143.414 41.992 144.289 41.992C145.131 41.992 145.883 42.1733 146.545 42.536C147.217 42.8987 147.734 43.416 148.097 44.088C148.47 44.7493 148.657 45.512 148.657 46.376ZM146.337 45.736C146.326 45.16 146.118 44.7013 145.713 44.36C145.307 44.008 144.811 43.832 144.225 43.832C143.67 43.832 143.201 44.0027 142.817 44.344C142.443 44.6747 142.214 45.1387 142.129 45.736H146.337ZM149.715 46.536C149.715 45.64 149.891 44.8453 150.243 44.152C150.606 43.4587 151.097 42.9253 151.716 42.552C152.334 42.1787 153.022 41.992 153.78 41.992C154.356 41.992 154.905 42.12 155.428 42.376C155.95 42.6213 156.366 42.952 156.676 43.368V39.16H158.948V51H156.676V49.688C156.398 50.1253 156.009 50.4773 155.508 50.744C155.006 51.0107 154.425 51.144 153.764 51.144C153.017 51.144 152.334 50.952 151.716 50.568C151.097 50.184 150.606 49.6453 150.243 48.952C149.891 48.248 149.715 47.4427 149.715 46.536ZM156.692 46.568C156.692 46.024 156.585 45.56 156.372 45.176C156.158 44.7813 155.87 44.4827 155.508 44.28C155.145 44.0667 154.756 43.96 154.34 43.96C153.924 43.96 153.54 44.0613 153.188 44.264C152.836 44.4667 152.548 44.7653 152.324 45.16C152.11 45.544 152.004 46.0027 152.004 46.536C152.004 47.0693 152.11 47.5387 152.324 47.944C152.548 48.3387 152.836 48.6427 153.188 48.856C153.55 49.0693 153.934 49.176 154.34 49.176C154.756 49.176 155.145 49.0747 155.508 48.872C155.87 48.6587 156.158 48.36 156.372 47.976C156.585 47.5813 156.692 47.112 156.692 46.568ZM168.852 39.832C170.025 39.832 171.054 40.0613 171.94 40.52C172.836 40.9787 173.524 41.6347 174.004 42.488C174.494 43.3307 174.74 44.312 174.74 45.432C174.74 46.552 174.494 47.5333 174.004 48.376C173.524 49.208 172.836 49.8533 171.94 50.312C171.054 50.7707 170.025 51 168.852 51H164.948V39.832H168.852ZM168.772 49.096C169.945 49.096 170.852 48.776 171.492 48.136C172.132 47.496 172.452 46.5947 172.452 45.432C172.452 44.2693 172.132 43.3627 171.492 42.712C170.852 42.0507 169.945 41.72 168.772 41.72H167.188V49.096H168.772ZM175.84 46.536C175.84 45.64 176.016 44.8453 176.368 44.152C176.731 43.4587 177.217 42.9253 177.825 42.552C178.443 42.1787 179.131 41.992 179.889 41.992C180.55 41.992 181.126 42.1253 181.617 42.392C182.118 42.6587 182.518 42.9947 182.817 43.4V42.136H185.073V51H182.817V49.704C182.529 50.12 182.129 50.4667 181.617 50.744C181.115 51.0107 180.534 51.144 179.873 51.144C179.126 51.144 178.443 50.952 177.825 50.568C177.217 50.184 176.731 49.6453 176.368 48.952C176.016 48.248 175.84 47.4427 175.84 46.536ZM182.817 46.568C182.817 46.024 182.71 45.56 182.497 45.176C182.283 44.7813 181.995 44.4827 181.633 44.28C181.27 44.0667 180.881 43.96 180.465 43.96C180.049 43.96 179.665 44.0613 179.312 44.264C178.961 44.4667 178.673 44.7653 178.449 45.16C178.235 45.544 178.129 46.0027 178.129 46.536C178.129 47.0693 178.235 47.5387 178.449 47.944C178.673 48.3387 178.961 48.6427 179.312 48.856C179.675 49.0693 180.059 49.176 180.465 49.176C180.881 49.176 181.27 49.0747 181.633 48.872C181.995 48.6587 182.283 48.36 182.497 47.976C182.71 47.5813 182.817 47.112 182.817 46.568ZM190.652 51.144C189.927 51.144 189.276 51.016 188.7 50.76C188.124 50.4933 187.666 50.136 187.324 49.688C186.994 49.24 186.812 48.744 186.78 48.2H189.036C189.079 48.5413 189.244 48.824 189.532 49.048C189.831 49.272 190.199 49.384 190.636 49.384C191.063 49.384 191.394 49.2987 191.628 49.128C191.874 48.9573 191.996 48.7387 191.996 48.472C191.996 48.184 191.847 47.9707 191.548 47.832C191.26 47.6827 190.796 47.5227 190.156 47.352C189.495 47.192 188.951 47.0267 188.524 46.856C188.108 46.6853 187.746 46.424 187.436 46.072C187.138 45.72 186.988 45.2453 186.988 44.648C186.988 44.1573 187.127 43.7093 187.404 43.304C187.692 42.8987 188.098 42.5787 188.62 42.344C189.154 42.1093 189.778 41.992 190.492 41.992C191.548 41.992 192.391 42.2587 193.02 42.792C193.65 43.3147 193.996 44.024 194.06 44.92H191.916C191.884 44.568 191.735 44.2907 191.468 44.088C191.212 43.8747 190.866 43.768 190.428 43.768C190.023 43.768 189.708 43.8427 189.484 43.992C189.271 44.1413 189.164 44.3493 189.164 44.616C189.164 44.9147 189.314 45.144 189.612 45.304C189.911 45.4533 190.375 45.608 191.004 45.768C191.644 45.928 192.172 46.0933 192.588 46.264C193.004 46.4347 193.362 46.7013 193.66 47.064C193.97 47.416 194.13 47.8853 194.14 48.472C194.14 48.984 193.996 49.4427 193.708 49.848C193.431 50.2533 193.026 50.5733 192.492 50.808C191.97 51.032 191.356 51.144 190.652 51.144ZM200.971 42.008C201.643 42.008 202.24 42.1573 202.763 42.456C203.286 42.744 203.691 43.176 203.979 43.752C204.278 44.3173 204.427 45 204.427 45.8V51H202.187V46.104C202.187 45.4 202.011 44.8613 201.659 44.488C201.307 44.104 200.827 43.912 200.219 43.912C199.6 43.912 199.11 44.104 198.747 44.488C198.395 44.8613 198.219 45.4 198.219 46.104V51H195.979V39.16H198.219V43.24C198.507 42.856 198.891 42.5573 199.371 42.344C199.851 42.12 200.384 42.008 200.971 42.008ZM208.797 43.432C209.085 43.0053 209.48 42.6587 209.981 42.392C210.493 42.1253 211.074 41.992 211.725 41.992C212.482 41.992 213.165 42.1787 213.773 42.552C214.392 42.9253 214.877 43.4587 215.229 44.152C215.592 44.8347 215.773 45.6293 215.773 46.536C215.773 47.4427 215.592 48.248 215.229 48.952C214.877 49.6453 214.392 50.184 213.773 50.568C213.165 50.952 212.482 51.144 211.725 51.144C211.064 51.144 210.482 51.016 209.981 50.76C209.49 50.4933 209.096 50.152 208.797 49.736V51H206.557V39.16H208.797V43.432ZM213.485 46.536C213.485 46.0027 213.373 45.544 213.149 45.16C212.936 44.7653 212.648 44.4667 212.285 44.264C211.933 44.0613 211.549 43.96 211.133 43.96C210.728 43.96 210.344 44.0667 209.981 44.28C209.629 44.4827 209.341 44.7813 209.117 45.176C208.904 45.5707 208.797 46.0347 208.797 46.568C208.797 47.1013 208.904 47.5653 209.117 47.96C209.341 48.3547 209.629 48.6587 209.981 48.872C210.344 49.0747 210.728 49.176 211.133 49.176C211.549 49.176 211.933 49.0693 212.285 48.856C212.648 48.6427 212.936 48.3387 213.149 47.944C213.373 47.5493 213.485 47.08 213.485 46.536ZM221.337 51.144C220.484 51.144 219.716 50.9573 219.033 50.584C218.35 50.2 217.812 49.6613 217.417 48.968C217.033 48.2747 216.841 47.4747 216.841 46.568C216.841 45.6613 217.038 44.8613 217.433 44.168C217.838 43.4747 218.388 42.9413 219.081 42.568C219.774 42.184 220.548 41.992 221.401 41.992C222.254 41.992 223.028 42.184 223.721 42.568C224.414 42.9413 224.958 43.4747 225.353 44.168C225.758 44.8613 225.961 45.6613 225.961 46.568C225.961 47.4747 225.753 48.2747 225.337 48.968C224.932 49.6613 224.377 50.2 223.673 50.584C222.98 50.9573 222.201 51.144 221.337 51.144ZM221.337 49.192C221.742 49.192 222.121 49.096 222.473 48.904C222.836 48.7013 223.124 48.4027 223.337 48.008C223.55 47.6133 223.657 47.1333 223.657 46.568C223.657 45.7253 223.433 45.08 222.985 44.632C222.548 44.1733 222.009 43.944 221.369 43.944C220.729 43.944 220.19 44.1733 219.753 44.632C219.326 45.08 219.113 45.7253 219.113 46.568C219.113 47.4107 219.321 48.0613 219.737 48.52C220.164 48.968 220.697 49.192 221.337 49.192ZM227.028 46.536C227.028 45.64 227.204 44.8453 227.556 44.152C227.919 43.4587 228.404 42.9253 229.012 42.552C229.631 42.1787 230.319 41.992 231.076 41.992C231.737 41.992 232.313 42.1253 232.804 42.392C233.305 42.6587 233.705 42.9947 234.004 43.4V42.136H236.26V51H234.004V49.704C233.716 50.12 233.316 50.4667 232.804 50.744C232.303 51.0107 231.721 51.144 231.06 51.144C230.313 51.144 229.631 50.952 229.012 50.568C228.404 50.184 227.919 49.6453 227.556 48.952C227.204 48.248 227.028 47.4427 227.028 46.536ZM234.004 46.568C234.004 46.024 233.897 45.56 233.684 45.176C233.471 44.7813 233.183 44.4827 232.82 44.28C232.457 44.0667 232.068 43.96 231.652 43.96C231.236 43.96 230.852 44.0613 230.5 44.264C230.148 44.4667 229.86 44.7653 229.636 45.16C229.423 45.544 229.316 46.0027 229.316 46.536C229.316 47.0693 229.423 47.5387 229.636 47.944C229.86 48.3387 230.148 48.6427 230.5 48.856C230.863 49.0693 231.247 49.176 231.652 49.176C232.068 49.176 232.457 49.0747 232.82 48.872C233.183 48.6587 233.471 48.36 233.684 47.976C233.897 47.5813 234.004 47.112 234.004 46.568ZM240.688 43.512C240.976 43.0427 241.349 42.6747 241.808 42.408C242.277 42.1413 242.81 42.008 243.408 42.008V44.36H242.816C242.112 44.36 241.578 44.5253 241.216 44.856C240.864 45.1867 240.688 45.7627 240.688 46.584V51H238.448V42.136H240.688V43.512ZM244.34 46.536C244.34 45.64 244.516 44.8453 244.868 44.152C245.231 43.4587 245.722 42.9253 246.341 42.552C246.959 42.1787 247.647 41.992 248.405 41.992C248.981 41.992 249.53 42.12 250.053 42.376C250.575 42.6213 250.991 42.952 251.301 43.368V39.16H253.573V51H251.301V49.688C251.023 50.1253 250.634 50.4773 250.133 50.744C249.631 51.0107 249.05 51.144 248.389 51.144C247.642 51.144 246.959 50.952 246.341 50.568C245.722 50.184 245.231 49.6453 244.868 48.952C244.516 48.248 244.34 47.4427 244.34 46.536ZM251.317 46.568C251.317 46.024 251.21 45.56 250.997 45.176C250.783 44.7813 250.495 44.4827 250.133 44.28C249.77 44.0667 249.381 43.96 248.965 43.96C248.549 43.96 248.165 44.0613 247.812 44.264C247.461 44.4667 247.173 44.7653 246.949 45.16C246.735 45.544 246.629 46.0027 246.629 46.536C246.629 47.0693 246.735 47.5387 246.949 47.944C247.173 48.3387 247.461 48.6427 247.812 48.856C248.175 49.0693 248.559 49.176 248.965 49.176C249.381 49.176 249.77 49.0747 250.133 48.872C250.495 48.6587 250.783 48.36 250.997 47.976C251.21 47.5813 251.317 47.112 251.317 46.568Z" fill="#1B365D"></path> <g filter="url(#filter3_dd_1270_10236)" data-figma-bg-blur-radius="12"> <rect x="27" y="27" width="37" height="37" rx="6" fill="url(#paint1_linear_1270_10236)"></rect> <path d="M53.6172 35C54.5141 35.0008 55.3746 35.3701 56.0088 36.0264C56.6427 36.6825 56.9991 37.5722 57 38.5V52.499C56.9992 53.4271 56.6429 54.3174 56.0088 54.9736C55.3746 55.6299 54.5141 55.9992 53.6172 56H37.3828C36.4859 55.9992 35.6254 55.6299 34.9912 54.9736C34.3571 54.3174 34.0008 53.4271 34 52.499V38.5C34.0009 37.5722 34.3573 36.6825 34.9912 36.0264C35.6254 35.3701 36.4859 35.0008 37.3828 35H53.6172ZM35.3535 52.499C35.3535 53.6582 36.2641 54.5996 37.3828 54.5996H53.6172C54.7359 54.5996 55.6465 53.6582 55.6465 52.499V39.2002H35.3535V52.499ZM46.8535 40.6006C47.9722 40.6006 48.8828 41.541 48.8828 42.7002V43.3994H52.2646C53.3846 43.3997 54.2939 44.3415 54.2939 45.499V51.0996C54.2938 52.257 53.3846 53.199 52.2646 53.1992H42.8047C42.8014 53.1993 42.7982 53.2002 42.7949 53.2002C42.7917 53.2002 42.7884 53.1993 42.7852 53.1992H38.7363C38.1984 53.1984 37.6831 52.9766 37.3027 52.583C36.9224 52.1894 36.7079 51.6562 36.707 51.0996V48.2988C36.707 47.1412 37.6162 46.1983 38.7363 46.1982H42.1172V42.7002C42.1172 41.5412 43.028 40.6008 44.1465 40.6006H46.8535ZM44.1465 41.999C43.9673 41.9995 43.7956 42.0738 43.6689 42.2051C43.5422 42.3365 43.4707 42.5146 43.4707 42.7002V51.7988H47.5293V42.7002C47.5293 42.5146 47.4586 42.3365 47.332 42.2051C47.2053 42.0737 47.0329 41.9994 46.8535 41.999H44.1465ZM48.8828 51.7988H52.2646C52.4439 51.7987 52.6163 51.7248 52.7432 51.5938C52.8699 51.4627 52.941 51.285 52.9414 51.0996V45.499C52.941 45.3134 52.8701 45.135 52.7432 45.0039C52.6163 44.8729 52.4439 44.7999 52.2646 44.7998H48.8828V51.7988ZM38.7363 47.5986C38.5569 47.5986 38.3848 47.6726 38.2578 47.8037C38.1308 47.9348 38.059 48.1132 38.0586 48.2988V51.0996C38.0587 51.4859 38.363 51.7988 38.7363 51.7988H42.1172V47.5986H38.7363ZM37.3828 36.4004C36.5014 36.4004 35.7512 36.9852 35.4717 37.7998H55.5283C55.2488 36.9852 54.4986 36.4004 53.6172 36.4004H37.3828Z" fill="white"></path> </g> </g> </g> <defs> <pattern id="pattern0_1270_10236" patternContentUnits="objectBoundingBox" width="1" height="1"> <use xlink:href="#image0_1270_10236" transform="matrix(0.00187757 0 0 0.00149925 -0.438783 0)"></use> </pattern> <filter id="filter0_d_1270_10236" x="257" y="313" width="214" height="91" filterUnits="userSpaceOnUse" color-interpolation-filters="sRGB"> <feFlood flood-opacity="0" result="BackgroundImageFix"></feFlood> <feColorMatrix in="SourceAlpha" type="matrix" values="0 0 0 0 0 0 0 0 0 0 0 0 0 0 0 0 0 0 127 0" result="hardAlpha"></feColorMatrix> <feOffset></feOffset> <feGaussianBlur stdDeviation="4.5"></feGaussianBlur> <feComposite in2="hardAlpha" operator="out"></feComposite> <feColorMatrix type="matrix" values="0 0 0 0 0.898039 0 0 0 0 0.560784 0 0 0 0 0.0705882 0 0 0 0.19 0"></feColorMatrix> <feBlend mode="normal" in2="BackgroundImageFix" result="effect1_dropShadow_1270_10236"></feBlend> <feBlend mode="normal" in="SourceGraphic" in2="effect1_dropShadow_1270_10236" result="shape"></feBlend> </filter> <filter id="filter1_dd_1270_10236" x="269" y="328" width="67" height="74" filterUnits="userSpaceOnUse" color-interpolation-filters="sRGB"> <feFlood flood-opacity="0" result="BackgroundImageFix"></feFlood> <feColorMatrix in="SourceAlpha" type="matrix" values="0 0 0 0 0 0 0 0 0 0 0 0 0 0 0 0 0 0 127 0" result="hardAlpha"></feColorMatrix> <feOffset dy="10"></feOffset> <feGaussianBlur stdDeviation="7.5"></feGaussianBlur> <feColorMatrix type="matrix" values="0 0 0 0 0 0 0 0 0 0 0 0 0 0 0 0 0 0 0.1 0"></feColorMatrix> <feBlend mode="normal" in2="BackgroundImageFix" result="effect1_dropShadow_1270_10236"></feBlend> <feColorMatrix in="SourceAlpha" type="matrix" values="0 0 0 0 0 0 0 0 0 0 0 0 0 0 0 0 0 0 127 0" result="hardAlpha"></feColorMatrix> <feOffset dy="4"></feOffset> <feGaussianBlur stdDeviation="3"></feGaussianBlur> <feColorMatrix type="matrix" values="0 0 0 0 0 0 0 0 0 0 0 0 0 0 0 0 0 0 0.1 0"></feColorMatrix> <feBlend mode="normal" in2="effect1_dropShadow_1270_10236" result="effect2_dropShadow_1270_10236"></feBlend> <feBlend mode="normal" in="SourceGraphic" in2="effect2_dropShadow_1270_10236" result="shape"></feBlend> </filter> <clipPath id="bgblur_0_1270_10236_clip_path" transform="translate(-269 -328)"><rect x="284" y="340" width="37" height="37" rx="6"></rect> </clipPath><filter id="filter2_d_1270_10236" x="0" y="0" width="282" height="91" filterUnits="userSpaceOnUse" color-interpolation-filters="sRGB"> <feFlood flood-opacity="0" result="BackgroundImageFix"></feFlood> <feColorMatrix in="SourceAlpha" type="matrix" values="0 0 0 0 0 0 0 0 0 0 0 0 0 0 0 0 0 0 127 0" result="hardAlpha"></feColorMatrix> <feOffset></feOffset> <feGaussianBlur stdDeviation="4.5"></feGaussianBlur> <feComposite in2="hardAlpha" operator="out"></feComposite> <feColorMatrix type="matrix" values="0 0 0 0 0.898039 0 0 0 0 0.560784 0 0 0 0 0.0705882 0 0 0 0.19 0"></feColorMatrix> <feBlend mode="normal" in2="BackgroundImageFix" result="effect1_dropShadow_1270_10236"></feBlend> <feBlend mode="normal" in="SourceGraphic" in2="effect1_dropShadow_1270_10236" result="shape"></feBlend> </filter> <filter id="filter3_dd_1270_10236" x="12" y="15" width="67" height="74" filterUnits="userSpaceOnUse" color-interpolation-filters="sRGB"> <feFlood flood-opacity="0" result="BackgroundImageFix"></feFlood> <feColorMatrix in="SourceAlpha" type="matrix" values="0 0 0 0 0 0 0 0 0 0 0 0 0 0 0 0 0 0 127 0" result="hardAlpha"></feColorMatrix> <feOffset dy="10"></feOffset> <feGaussianBlur stdDeviation="7.5"></feGaussianBlur> <feColorMatrix type="matrix" values="0 0 0 0 0 0 0 0 0 0 0 0 0 0 0 0 0 0 0.1 0"></feColorMatrix> <feBlend mode="normal" in2="BackgroundImageFix" result="effect1_dropShadow_1270_10236"></feBlend> <feColorMatrix in="SourceAlpha" type="matrix" values="0 0 0 0 0 0 0 0 0 0 0 0 0 0 0 0 0 0 127 0" result="hardAlpha"></feColorMatrix> <feOffset dy="4"></feOffset> <feGaussianBlur stdDeviation="3"></feGaussianBlur> <feColorMatrix type="matrix" values="0 0 0 0 0 0 0 0 0 0 0 0 0 0 0 0 0 0 0.1 0"></feColorMatrix> <feBlend mode="normal" in2="effect1_dropShadow_1270_10236" result="effect2_dropShadow_1270_10236"></feBlend> <feBlend mode="normal" in="SourceGraphic" in2="effect2_dropShadow_1270_10236" result="shape"></feBlend> </filter> <clipPath id="bgblur_1_1270_10236_clip_path" transform="translate(-12 -15)"><rect x="27" y="27" width="37" height="37" rx="6"></rect> </clipPath><linearGradient id="paint0_linear_1270_10236" x1="284" y1="358.5" x2="321" y2="358.5" gradientUnits="userSpaceOnUse"> <stop stop-color="#E58F12"></stop> <stop offset="1" stop-color="#D56500"></stop> </linearGradient> <linearGradient id="paint1_linear_1270_10236" x1="27" y1="45.5" x2="64" y2="45.5" gradientUnits="userSpaceOnUse"> <stop stop-color="#E58F12"></stop> <stop offset="1" stop-color="#D56500"></stop> </linearGradient> <image id="image0_1270_10236" width="1000" height="667" preserveAspectRatio="none" xlink:href="https://hmspro-dev.ab.simprosysapps.com/images/partner-programe-img.jpg"></image> </defs> </svg>
